HIERARCHY
ROOT pelvis
{
  OFFSET 0 100 0
  CHANNELS 6 Xposition Yposition Zposition Zrotation Xrotation Yrotation
  JOINT pelvis_right_femur
  {
    OFFSET -10.78128 -3.44521 -0.5502486
    CHANNELS 3 Zrotation Xrotation Yrotation
    JOINT right_femur_tibia
    {
      OFFSET -0.8047443 -44.0398 -0.1307829
      CHANNELS 3 Zrotation Xrotation Yrotation
      JOINT right_tibia_foot
      {
        OFFSET 3.006224 -47.83518 -5
        CHANNELS 3 Zrotation Xrotation Yrotation
        End Site
        {
          OFFSET 0 -5 15
        }
      }
    }
  }
  JOINT pelvis_left_femur
  {
    OFFSET 10.78128 -3.44521 -0.5502486
    CHANNELS 3 Zrotation Xrotation Yrotation
    JOINT left_femur_tibia
    {
      OFFSET 0.8047443 -44.0398 -0.1307829
      CHANNELS 3 Zrotation Xrotation Yrotation
      JOINT left_tibia_foot
      {
        OFFSET -4.370144 -48.10324 -4.275266
        CHANNELS 3 Zrotation Xrotation Yrotation
        End Site
        {
          OFFSET 0 -5 15
        }
      }
    }
  }
  JOINT pelvis_spine1
  {
    OFFSET 0 6.468898 -3.129235
    CHANNELS 3 Zrotation Xrotation Yrotation
    JOINT spine1
    {
      OFFSET 0 23.15396 4.99043
      CHANNELS 3 Zrotation Xrotation Yrotation
      JOINT spine2
      {
        OFFSET 0 20.79997 -5.064912
        CHANNELS 3 Zrotation Xrotation Yrotation
        JOINT neck
        {
          OFFSET 0 14.38658 9.616178
          CHANNELS 3 Zrotation Xrotation Yrotation
          End Site
          {
            OFFSET 0 20 0
          }
        }
      }
      JOINT right_manubrium
      {
        OFFSET -5.722621 16.35077 3.967754
        CHANNELS 3 Zrotation Xrotation Yrotation
        JOINT right_clavicle
        {
          OFFSET -13.16364 1.694482 -4.693211
          CHANNELS 3 Zrotation Xrotation Yrotation
          JOINT right_humerus
          {
            OFFSET -28.5034 -0.3100689 -2.792744
            CHANNELS 3 Zrotation Xrotation Yrotation
            JOINT right_radius
            {
              OFFSET -25.15693 0.02248979 -1.271978
              CHANNELS 3 Zrotation Xrotation Yrotation
              End Site
              {
                OFFSET -15 0 0
              }
            }
          }
        }
      }
      JOINT left_manubrium
      {
        OFFSET 5.722621 16.35077 3.967754
        CHANNELS 3 Zrotation Xrotation Yrotation
        JOINT left_clavicle
        {
          OFFSET 13.16364 1.694482 -4.693211
          CHANNELS 3 Zrotation Xrotation Yrotation
          JOINT left_humerus
          {
            OFFSET 29.39168 -1.063119 -2.237045
            CHANNELS 3 Zrotation Xrotation Yrotation
            JOINT left_radius
            {
              OFFSET 24.59957 -0.9528479 0.9047498
              CHANNELS 3 Zrotation Xrotation Yrotation
              End Site
              {
                OFFSET 15 -0 -0
              }
            }
          }
        }
      }
    }
  }
}
MOTION
Frames: 7
Frame Time: 0.0416666666667
0 103.5113 0 1.773537 -1.04589 0.1452205 2.354277 -15.44829 10.12267 -0 39.16478 -0 -4.224193 -17.52011 -2.807966 -7.92504 9.826444 -23.00655 -0 3.877734 -0 14.02512 -13.91446 29.4782 -4.71271 -3.972329 5.088493 2.594093 10.39815 -7.287651 1.29596 21.8727 6.910331 2.724206 -23.80905 10.06446 6.992654 -19.94829 11.90267 84.95603 38.31461 -17.44608 -0 0 16.32906 -7.213058 8.845765 4.417035 5.851843 -19.01773 -1.472275 -91.16098 21.05063 19.48418 0 0 -15.15816 14.36857 13.37274 -3.886848
0.443803 103.3662 1.748922 1.330726 -0.5938966 0.2334475 3.086187 -17.68548 9.867415 -0 38.06902 -0 -4.525806 -16.32206 -2.586601 -7.619925 9.99984 -22.4916 -0 4.256134 -0 13.89213 -14.22357 29.00447 -4.364045 -3.629657 4.949053 2.684802 10.44431 -7.380598 1.326726 21.67837 6.94706 2.812379 -24.17931 10.10768 6.902441 -19.87852 11.89541 85.11341 38.31376 -17.58213 -0 0 16.0793 -7.190644 8.807833 4.429171 6.019915 -19.29984 -1.50888 -91.01918 20.6125 19.31588 0 0 -15.52867 15.04711 13.15807 -4.422928
0.8586749 103.1813 3.73545 0.6249998 0.3710035 0.2889554 4.496483 -21.44841 9.767353 -0 34.98436 -0 -4.674027 -15.04122 -2.350747 -7.1658 10.53533 -21.80632 -0 5.095144 -0 13.32425 -15.14175 28.23234 -3.799943 -3.147269 4.836373 2.907279 10.29075 -7.562327 1.427509 21.32329 6.930877 2.87462 -24.87695 10.21103 6.678013 -19.74353 11.77535 85.38932 38.16039 -18.04482 -0 0 15.82061 -6.638905 8.560602 4.194801 6.304574 -19.61674 -1.417543 -91.12958 20.66372 19.35928 0 0 -16.403 15.27807 12.96521 -4.26623
1.256314 102.9365 5.895747 0.219042 1.17933 0.3316399 5.494272 -23.86292 9.926004 -0 32.2975 -0 -4.538355 -14.51573 -2.199652 -6.946837 10.88442 -21.40951 -0 5.789228 -0 13.07471 -15.77028 27.86587 -3.491871 -2.926815 4.883523 3.095129 10.14471 -7.691679 1.509464 21.01974 6.905912 2.891881 -25.39199 10.32568 6.573951 -19.65945 11.66796 85.52475 38.24704 -18.41382 -0 0 15.73037 -6.062396 8.422683 3.902402 6.52633 -19.77964 -1.234917 -91.25945 20.66007 19.46556 0 0 -17.05861 15.44833 12.71335 -4.221349
1.632061 102.6323 8.305699 -0.1998962 2.055174 0.3725433 6.516736 -26.51048 9.895581 -0 29.1163 -0 -4.543997 -13.42609 -1.980084 -6.712117 11.28309 -20.81611 -0 6.710731 -0 12.58638 -16.58963 27.20292 -3.167848 -2.676733 4.898513 3.275793 10.00236 -7.837092 1.576923 20.70628 6.892606 2.960862 -25.93823 10.37412 6.421922 -19.53273 11.5588 85.78959 38.24574 -18.94858 -0 0 15.44011 -5.663263 8.299324 3.700513 6.76448 -20.08013 -1.106534 -91.31963 20.76658 19.51187 0 0 -18.0093 15.44626 12.52858 -3.919152
1.98407 102.2501 10.97936 -0.5145796 2.707944 0.4312903 7.212945 -28.70027 9.541233 -0 26.26684 -0 -4.745052 -11.96665 -1.738942 -6.513926 11.65467 -20.13274 -0 7.550436 -0 11.90679 -17.41774 26.31428 -2.905043 -2.444278 4.844973 3.382203 9.902544 -7.952563 1.606842 20.49715 6.892973 3.062458 -26.32676 10.31857 6.219093 -19.38377 11.47788 86.15157 38.03381 -19.51663 -0 0 14.96769 -5.656139 8.225028 3.698972 6.958983 -20.47335 -1.113827 -91.23572 20.97531 19.40063 0 0 -19.06672 15.23539 12.50565 -3.399906
2.296925 101.719 14.07702 -0.7891231 3.134013 0.5602915 7.498407 -31.2121 8.138349 -0 22.60166 -0 -5.433517 -9.160405 -1.322317 -6.263889 12.21501 -18.84082 -0 8.431758 -0 10.57383 -18.62608 24.48786 -2.600833 -2.088216 4.587652 3.375727 9.846098 -8.05433 1.582056 20.43607 6.89538 3.231435 -26.50118 10.02155 5.7186 -19.09862 11.40748 86.91228 37.07784 -20.36146 -0 0 13.84853 -6.528405 8.189143 4.142552 7.201711 -21.28314 -1.449621 -90.64833 21.26884 18.64164 0 0 -20.90385 14.75648 12.74033 -2.527607
